<svg width="23" height="23" viewBox="0 0 23 23" fill="none" xmlns="http://www.w3.org/2000/svg">
<g id="Icon/Outline/clock">
<path id="Mask" fill-rule="evenodd" clip-rule="evenodd" d="M15.3333 10.5417H12.4583V7.66669C12.4583 7.13673 12.029 6.70835 11.5 6.70835C10.971 6.70835 10.5416 7.13673 10.5416 7.66669V11.5C10.5416 12.03 10.971 12.4584 11.5 12.4584H15.3333C15.8632 12.4584 16.2916 12.03 16.2916 11.5C16.2916 10.9701 15.8632 10.5417 15.3333 10.5417ZM11.5 19.1667C7.27275 19.1667 3.83329 15.7272 3.83329 11.5C3.83329 7.27281 7.27275 3.83335 11.5 3.83335C15.7272 3.83335 19.1666 7.27281 19.1666 11.5C19.1666 15.7272 15.7272 19.1667 11.5 19.1667ZM11.5 1.91669C6.21571 1.91669 1.91663 6.21577 1.91663 11.5C1.91663 16.7843 6.21571 21.0834 11.5 21.0834C16.7842 21.0834 21.0833 16.7843 21.0833 11.5C21.0833 6.21577 16.7842 1.91669 11.5 1.91669Z" fill="#FF1B80"/>
</g>
</svg>
